<svg xmlns="http://www.w3.org/2000/svg" viewBox="0 0 48 48" width="48" height="48">
  <!-- Stone piece base -->
  <defs>
    <linearGradient id="stone-grad" x1="0" y1="0" x2="48" y2="48">
      <stop offset="0%" stop-color="#D4AF37"/>
      <stop offset="100%" stop-color="#B8860B"/>
    </linearGradient>
  </defs>
  <!-- Background circle -->
  <circle cx="24" cy="24" r="22" fill="#4A3728" opacity="0.9"/>
  <!-- Stone piece shape -->
  <path d="M14 8 C18 5, 30 5, 34 8 C38 11, 40 16, 39 22 C38 28, 35 32, 32 34 C29 36, 26 37, 24 37 C22 37, 19 36, 16 34 C13 32, 10 28, 9 22 C8 16, 10 11, 14 8Z"
        fill="url(#stone-grad)" stroke="#FFFDD0" stroke-width="0.8"/>
  <!-- Altai rune symbol -->
  <circle cx="24" cy="20" r="3" fill="none" stroke="#F5EBE0" stroke-width="0.8" opacity="0.7"/>
  <path d="M24 17 Q26 14 24 11 Q22 14 24 17Z" fill="none" stroke="#F5EBE0" stroke-width="0.7" opacity="0.5"/>
  <path d="M27 20 Q30 18 31 20 Q30 22 27 20Z" fill="none" stroke="#F5EBE0" stroke-width="0.7" opacity="0.5"/>
  <path d="M24 23 Q22 26 24 29 Q26 26 24 23Z" fill="none" stroke="#F5EBE0" stroke-width="0.7" opacity="0.5"/>
  <path d="M21 20 Q18 18 17 20 Q18 22 21 20Z" fill="none" stroke="#F5EBE0" stroke-width="0.7" opacity="0.5"/>
</svg>